<svg xmlns="http://www.w3.org/2000/svg" xmlns:xlink="http://www.w3.org/1999/xlink" width="2000" zoomAndPan="magnify" viewBox="0 0 1500 1499.999933" height="2000" preserveAspectRatio="xMidYMid meet" version="1.0">
    <defs>
        <clipPath id="f40035e983">
            <path d="M 0 267.273438 L 1499.996094 267.273438 L 1499.996094 1232 L 0 1232 Z M 0 267.273438 " clip-rule="nonzero"/>
        </clipPath>
    </defs>
    <g clip-path="url(#f40035e983)">
        <path fill="#f5f5f7" d="M -0.00390625 428.570312 L -0.00390625 1069.46875 C 0 1072.09375 0.0703125 1074.71875 0.203125 1077.34375 C 0.335938 1079.964844 0.53125 1082.582031 0.792969 1085.195312 C 1.050781 1087.808594 1.378906 1090.414062 1.765625 1093.011719 C 2.152344 1095.609375 2.605469 1098.195312 3.121094 1100.773438 C 3.632812 1103.347656 4.210938 1105.910156 4.851562 1108.457031 C 5.492188 1111.003906 6.195312 1113.535156 6.957031 1116.046875 C 7.722656 1118.558594 8.546875 1121.050781 9.433594 1123.523438 C 10.320312 1125.996094 11.265625 1128.445312 12.269531 1130.871094 C 13.277344 1133.296875 14.34375 1135.699219 15.464844 1138.070312 C 16.589844 1140.445312 17.769531 1142.789062 19.007812 1145.105469 C 20.246094 1147.421875 21.539062 1149.707031 22.890625 1151.960938 C 24.242188 1154.214844 25.644531 1156.433594 27.101562 1158.617188 C 28.5625 1160.800781 30.074219 1162.945312 31.636719 1165.058594 C 33.199219 1167.167969 34.816406 1169.238281 36.480469 1171.269531 C 38.144531 1173.300781 39.859375 1175.289062 41.621094 1177.238281 C 43.382812 1179.183594 45.191406 1181.085938 47.046875 1182.945312 C 48.90625 1184.804688 50.804688 1186.617188 52.75 1188.382812 C 54.691406 1190.148438 56.679688 1191.863281 58.707031 1193.53125 C 60.734375 1195.203125 62.804688 1196.820312 64.910156 1198.386719 C 67.019531 1199.953125 69.164062 1201.46875 71.34375 1202.929688 C 73.527344 1204.394531 75.742188 1205.800781 77.992188 1207.152344 C 80.246094 1208.507812 82.527344 1209.804688 84.839844 1211.046875 C 87.15625 1212.289062 89.5 1213.472656 91.871094 1214.601562 C 94.242188 1215.730469 96.640625 1216.796875 99.066406 1217.808594 C 101.488281 1218.816406 103.9375 1219.765625 106.410156 1220.65625 C 108.878906 1221.546875 111.371094 1222.375 113.882812 1223.144531 C 116.394531 1223.914062 118.921875 1224.621094 121.46875 1225.265625 C 124.015625 1225.90625 126.574219 1226.488281 129.148438 1227.007812 C 131.722656 1227.527344 134.308594 1227.984375 136.90625 1228.375 C 139.503906 1228.769531 142.109375 1229.097656 144.722656 1229.363281 C 147.335938 1229.625 149.953125 1229.828125 152.574219 1229.964844 C 155.199219 1230.101562 157.824219 1230.171875 160.449219 1230.183594 L 1231.851562 1231.960938 C 1234.484375 1231.964844 1237.117188 1231.90625 1239.746094 1231.78125 C 1242.375 1231.65625 1245 1231.46875 1247.621094 1231.214844 C 1250.242188 1230.960938 1252.855469 1230.640625 1255.460938 1230.257812 C 1258.066406 1229.878906 1260.664062 1229.433594 1263.246094 1228.921875 C 1265.828125 1228.414062 1268.398438 1227.839844 1270.953125 1227.203125 C 1273.507812 1226.566406 1276.046875 1225.871094 1278.566406 1225.109375 C 1281.089844 1224.347656 1283.589844 1223.527344 1286.070312 1222.640625 C 1288.550781 1221.757812 1291.007812 1220.816406 1293.441406 1219.808594 C 1295.875 1218.804688 1298.285156 1217.742188 1300.667969 1216.621094 C 1303.046875 1215.496094 1305.402344 1214.316406 1307.726562 1213.078125 C 1310.046875 1211.839844 1312.339844 1210.542969 1314.601562 1209.195312 C 1316.859375 1207.84375 1319.085938 1206.4375 1321.277344 1204.976562 C 1323.46875 1203.515625 1325.621094 1202.003906 1327.738281 1200.4375 C 1329.855469 1198.871094 1331.933594 1197.253906 1333.96875 1195.582031 C 1336.007812 1193.914062 1338.003906 1192.199219 1339.957031 1190.429688 C 1341.90625 1188.664062 1343.816406 1186.851562 1345.679688 1184.992188 C 1347.542969 1183.128906 1349.359375 1181.226562 1351.128906 1179.277344 C 1352.902344 1177.328125 1354.621094 1175.335938 1356.292969 1173.300781 C 1357.964844 1171.265625 1359.585938 1169.191406 1361.15625 1167.078125 C 1362.726562 1164.964844 1364.246094 1162.8125 1365.707031 1160.625 C 1367.171875 1158.4375 1368.582031 1156.214844 1369.9375 1153.957031 C 1371.292969 1151.699219 1372.59375 1149.40625 1373.835938 1147.085938 C 1375.078125 1144.765625 1376.261719 1142.414062 1377.390625 1140.035156 C 1378.515625 1137.65625 1379.585938 1135.25 1380.59375 1132.816406 C 1381.601562 1130.382812 1382.550781 1127.929688 1383.4375 1125.449219 C 1384.328125 1122.96875 1385.152344 1120.472656 1385.917969 1117.953125 C 1386.683594 1115.429688 1387.386719 1112.894531 1388.027344 1110.339844 C 1388.667969 1107.785156 1389.246094 1105.21875 1389.757812 1102.636719 C 1390.273438 1100.054688 1390.722656 1097.460938 1391.109375 1094.855469 C 1391.496094 1092.25 1391.820312 1089.636719 1392.078125 1087.015625 C 1392.335938 1084.398438 1392.53125 1081.769531 1392.660156 1079.140625 C 1392.789062 1076.511719 1392.855469 1073.878906 1392.855469 1071.246094 L 1392.855469 1007.984375 C 1396.730469 1006.617188 1400.550781 1005.105469 1404.3125 1003.445312 C 1408.070312 1001.789062 1411.761719 999.988281 1415.386719 998.042969 C 1419.007812 996.101562 1422.550781 994.023438 1426.011719 991.808594 C 1429.476562 989.59375 1432.847656 987.25 1436.128906 984.773438 C 1439.410156 982.300781 1442.59375 979.703125 1445.675781 976.984375 C 1448.761719 974.265625 1451.734375 971.433594 1454.597656 968.484375 C 1457.464844 965.539062 1460.210938 962.484375 1462.84375 959.328125 C 1465.472656 956.167969 1467.976562 952.914062 1470.359375 949.5625 C 1472.738281 946.210938 1474.988281 942.773438 1477.101562 939.25 C 1479.21875 935.726562 1481.195312 932.125 1483.035156 928.449219 C 1484.875 924.773438 1486.570312 921.035156 1488.121094 917.226562 C 1489.675781 913.421875 1491.078125 909.5625 1492.332031 905.648438 C 1493.589844 901.734375 1494.691406 897.777344 1495.644531 893.777344 C 1496.59375 889.78125 1497.390625 885.75 1498.03125 881.691406 C 1498.671875 877.628906 1499.160156 873.550781 1499.484375 869.453125 C 1499.8125 865.355469 1499.984375 861.253906 1499.996094 857.144531 L 1499.996094 642.855469 C 1499.984375 638.746094 1499.8125 634.644531 1499.484375 630.546875 C 1499.160156 626.449219 1498.671875 622.371094 1498.03125 618.308594 C 1497.390625 614.25 1496.59375 610.21875 1495.644531 606.222656 C 1494.691406 602.222656 1493.589844 598.265625 1492.332031 594.351562 C 1491.078125 590.4375 1489.675781 586.578125 1488.121094 582.773438 C 1486.570312 578.964844 1484.875 575.226562 1483.035156 571.550781 C 1481.195312 567.875 1479.21875 564.273438 1477.101562 560.75 C 1474.988281 557.226562 1472.738281 553.789062 1470.359375 550.4375 C 1467.976562 547.085938 1465.472656 543.832031 1462.84375 540.671875 C 1460.210938 537.515625 1457.464844 534.460938 1454.597656 531.515625 C 1451.734375 528.566406 1448.761719 525.734375 1445.675781 523.015625 C 1442.59375 520.296875 1439.410156 517.699219 1436.128906 515.226562 C 1432.847656 512.75 1429.476562 510.40625 1426.011719 508.191406 C 1422.550781 505.976562 1419.007812 503.898438 1415.386719 501.957031 C 1411.761719 500.011719 1408.070312 498.210938 1404.3125 496.554688 C 1400.550781 494.894531 1396.730469 493.382812 1392.855469 492.015625 L 1392.855469 428.570312 C 1392.851562 425.941406 1392.785156 423.3125 1392.652344 420.6875 C 1392.519531 418.0625 1392.324219 415.441406 1392.066406 412.824219 C 1391.804688 410.207031 1391.480469 407.597656 1391.09375 405 C 1390.703125 402.398438 1390.253906 399.808594 1389.738281 397.230469 C 1389.222656 394.652344 1388.644531 392.085938 1388.003906 389.535156 C 1387.363281 386.988281 1386.660156 384.453125 1385.894531 381.9375 C 1385.128906 379.421875 1384.304688 376.925781 1383.414062 374.453125 C 1382.527344 371.976562 1381.582031 369.523438 1380.574219 367.097656 C 1379.566406 364.667969 1378.5 362.265625 1377.375 359.886719 C 1376.25 357.511719 1375.066406 355.164062 1373.824219 352.847656 C 1372.585938 350.527344 1371.289062 348.242188 1369.9375 345.984375 C 1368.582031 343.730469 1367.175781 341.511719 1365.714844 339.324219 C 1364.253906 337.140625 1362.738281 334.992188 1361.171875 332.878906 C 1359.605469 330.765625 1357.988281 328.695312 1356.320312 326.664062 C 1354.652344 324.628906 1352.933594 322.640625 1351.167969 320.691406 C 1349.402344 318.742188 1347.589844 316.839844 1345.730469 314.980469 C 1343.871094 313.121094 1341.96875 311.308594 1340.019531 309.542969 C 1338.070312 307.777344 1336.082031 306.058594 1334.046875 304.390625 C 1332.015625 302.722656 1329.945312 301.105469 1327.832031 299.539062 C 1325.722656 297.972656 1323.574219 296.457031 1321.386719 294.996094 C 1319.199219 293.535156 1316.980469 292.128906 1314.726562 290.777344 C 1312.46875 289.421875 1310.183594 288.125 1307.867188 286.886719 C 1305.546875 285.644531 1303.199219 284.460938 1300.824219 283.335938 C 1298.445312 282.210938 1296.042969 281.144531 1293.617188 280.136719 C 1291.1875 279.128906 1288.734375 278.183594 1286.257812 277.296875 C 1283.785156 276.40625 1281.289062 275.582031 1278.773438 274.816406 C 1276.257812 274.050781 1273.726562 273.347656 1271.175781 272.707031 C 1268.625 272.066406 1266.058594 271.488281 1263.480469 270.972656 C 1260.902344 270.460938 1258.3125 270.007812 1255.714844 269.621094 C 1253.113281 269.230469 1250.503906 268.90625 1247.886719 268.648438 C 1245.269531 268.386719 1242.648438 268.191406 1240.023438 268.058594 C 1237.398438 267.925781 1234.769531 267.859375 1232.140625 267.855469 L 160.710938 267.855469 C 158.082031 267.859375 155.453125 267.925781 152.828125 268.058594 C 150.203125 268.191406 147.582031 268.386719 144.964844 268.648438 C 142.347656 268.90625 139.738281 269.230469 137.140625 269.621094 C 134.539062 270.007812 131.949219 270.460938 129.371094 270.972656 C 126.792969 271.488281 124.226562 272.066406 121.675781 272.707031 C 119.128906 273.347656 116.59375 274.050781 114.078125 274.816406 C 111.5625 275.582031 109.066406 276.410156 106.59375 277.296875 C 104.117188 278.183594 101.664062 279.128906 99.238281 280.136719 C 96.808594 281.144531 94.40625 282.210938 92.027344 283.335938 C 89.652344 284.460938 87.304688 285.644531 84.988281 286.886719 C 82.667969 288.125 80.382812 289.421875 78.125 290.777344 C 75.871094 292.128906 73.652344 293.535156 71.464844 294.996094 C 69.28125 296.457031 67.132812 297.972656 65.019531 299.539062 C 62.90625 301.105469 60.835938 302.722656 58.804688 304.390625 C 56.769531 306.058594 54.78125 307.777344 52.832031 309.542969 C 50.882812 311.308594 48.980469 313.121094 47.121094 314.980469 C 45.261719 316.839844 43.449219 318.742188 41.683594 320.691406 C 39.917969 322.640625 38.199219 324.628906 36.53125 326.664062 C 34.863281 328.695312 33.246094 330.765625 31.679688 332.878906 C 30.113281 334.992188 28.597656 337.140625 27.136719 339.324219 C 25.675781 341.511719 24.269531 343.730469 22.917969 345.984375 C 21.5625 348.242188 20.265625 350.527344 19.027344 352.847656 C 17.785156 355.164062 16.601562 357.511719 15.476562 359.886719 C 14.351562 362.265625 13.285156 364.667969 12.277344 367.097656 C 11.269531 369.523438 10.324219 371.976562 9.4375 374.453125 C 8.546875 376.925781 7.722656 379.421875 6.957031 381.9375 C 6.191406 384.453125 5.488281 386.988281 4.847656 389.535156 C 4.207031 392.085938 3.628906 394.652344 3.113281 397.230469 C 2.601562 399.808594 2.148438 402.398438 1.761719 405 C 1.371094 407.597656 1.046875 410.207031 0.789062 412.824219 C 0.527344 415.441406 0.332031 418.0625 0.199219 420.6875 C 0.0664062 423.3125 0 425.941406 -0.00390625 428.570312 Z M 1232.140625 375 C 1233.894531 375.003906 1235.644531 375.089844 1237.390625 375.265625 C 1239.132812 375.4375 1240.867188 375.695312 1242.585938 376.039062 C 1244.304688 376.382812 1246.003906 376.8125 1247.683594 377.324219 C 1249.359375 377.832031 1251.011719 378.425781 1252.628906 379.097656 C 1254.25 379.769531 1255.832031 380.519531 1257.378906 381.347656 C 1258.925781 382.171875 1260.429688 383.074219 1261.886719 384.050781 C 1263.34375 385.023438 1264.75 386.070312 1266.105469 387.179688 C 1267.460938 388.292969 1268.761719 389.472656 1270 390.710938 C 1271.242188 391.953125 1272.417969 393.25 1273.53125 394.605469 C 1274.644531 395.960938 1275.6875 397.367188 1276.660156 398.824219 C 1277.636719 400.28125 1278.539062 401.785156 1279.367188 403.332031 C 1280.191406 404.878906 1280.941406 406.460938 1281.613281 408.082031 C 1282.289062 409.703125 1282.878906 411.351562 1283.390625 413.027344 C 1283.898438 414.707031 1284.328125 416.40625 1284.671875 418.125 C 1285.015625 419.84375 1285.273438 421.578125 1285.449219 423.324219 C 1285.621094 425.066406 1285.710938 426.816406 1285.710938 428.570312 L 1285.710938 535.714844 C 1285.710938 537.46875 1285.796875 539.21875 1285.96875 540.964844 C 1286.140625 542.710938 1286.398438 544.445312 1286.742188 546.164062 C 1287.082031 547.886719 1287.507812 549.585938 1288.019531 551.265625 C 1288.527344 552.945312 1289.117188 554.59375 1289.789062 556.214844 C 1290.460938 557.835938 1291.210938 559.421875 1292.039062 560.96875 C 1292.863281 562.515625 1293.765625 564.019531 1294.738281 565.476562 C 1295.714844 566.9375 1296.757812 568.34375 1297.871094 569.699219 C 1298.984375 571.054688 1300.160156 572.355469 1301.402344 573.59375 C 1302.644531 574.835938 1303.941406 576.011719 1305.296875 577.125 C 1306.652344 578.238281 1308.0625 579.28125 1309.519531 580.257812 C 1310.980469 581.230469 1312.480469 582.132812 1314.03125 582.960938 C 1315.578125 583.785156 1317.160156 584.535156 1318.78125 585.207031 C 1320.402344 585.878906 1322.054688 586.46875 1323.730469 586.980469 C 1325.410156 587.488281 1327.109375 587.914062 1328.832031 588.257812 C 1330.550781 588.597656 1332.285156 588.855469 1334.03125 589.027344 C 1335.777344 589.199219 1337.527344 589.285156 1339.28125 589.285156 C 1341.035156 589.289062 1342.785156 589.375 1344.53125 589.550781 C 1346.277344 589.722656 1348.007812 589.984375 1349.730469 590.328125 C 1351.449219 590.671875 1353.148438 591.097656 1354.828125 591.609375 C 1356.503906 592.117188 1358.152344 592.710938 1359.773438 593.382812 C 1361.394531 594.054688 1362.976562 594.804688 1364.523438 595.632812 C 1366.070312 596.460938 1367.570312 597.359375 1369.027344 598.335938 C 1370.488281 599.308594 1371.894531 600.355469 1373.25 601.46875 C 1374.605469 602.578125 1375.902344 603.757812 1377.144531 604.996094 C 1378.382812 606.238281 1379.558594 607.535156 1380.671875 608.890625 C 1381.785156 610.246094 1382.828125 611.652344 1383.804688 613.109375 C 1384.78125 614.570312 1385.679688 616.070312 1386.507812 617.617188 C 1387.335938 619.164062 1388.085938 620.746094 1388.757812 622.367188 C 1389.429688 623.988281 1390.023438 625.636719 1390.53125 627.3125 C 1391.042969 628.992188 1391.46875 630.691406 1391.8125 632.410156 C 1392.15625 634.128906 1392.417969 635.863281 1392.589844 637.609375 C 1392.765625 639.355469 1392.851562 641.101562 1392.855469 642.855469 L 1392.855469 857.144531 C 1392.851562 858.898438 1392.765625 860.644531 1392.589844 862.390625 C 1392.417969 864.136719 1392.15625 865.871094 1391.8125 867.589844 C 1391.46875 869.308594 1391.042969 871.007812 1390.53125 872.6875 C 1390.023438 874.363281 1389.429688 876.011719 1388.757812 877.632812 C 1388.085938 879.253906 1387.335938 880.835938 1386.507812 882.382812 C 1385.679688 883.929688 1384.78125 885.429688 1383.804688 886.890625 C 1382.828125 888.347656 1381.785156 889.753906 1380.671875 891.109375 C 1379.558594 892.464844 1378.382812 893.761719 1377.144531 895.003906 C 1375.902344 896.242188 1374.605469 897.421875 1373.25 898.53125 C 1371.894531 899.644531 1370.488281 900.691406 1369.027344 901.664062 C 1367.570312 902.640625 1366.070312 903.539062 1364.523438 904.367188 C 1362.976562 905.195312 1361.394531 905.945312 1359.773438 906.617188 C 1358.152344 907.289062 1356.503906 907.882812 1354.824219 908.390625 C 1353.148438 908.902344 1351.449219 909.328125 1349.730469 909.671875 C 1348.007812 910.015625 1346.277344 910.277344 1344.53125 910.449219 C 1342.785156 910.625 1341.035156 910.710938 1339.28125 910.714844 C 1337.527344 910.714844 1335.777344 910.800781 1334.03125 910.972656 C 1332.285156 911.144531 1330.550781 911.402344 1328.832031 911.742188 C 1327.109375 912.085938 1325.410156 912.511719 1323.730469 913.019531 C 1322.054688 913.53125 1320.402344 914.121094 1318.78125 914.792969 C 1317.160156 915.464844 1315.578125 916.210938 1314.03125 917.039062 C 1312.480469 917.867188 1310.980469 918.769531 1309.519531 919.742188 C 1308.0625 920.71875 1306.652344 921.761719 1305.296875 922.875 C 1303.941406 923.988281 1302.644531 925.164062 1301.402344 926.40625 C 1300.160156 927.644531 1298.984375 928.945312 1297.871094 930.300781 C 1296.757812 931.65625 1295.714844 933.0625 1294.738281 934.523438 C 1293.765625 935.980469 1292.863281 937.484375 1292.039062 939.03125 C 1291.210938 940.578125 1290.460938 942.164062 1289.789062 943.785156 C 1289.117188 945.40625 1288.527344 947.054688 1288.019531 948.734375 C 1287.507812 950.414062 1287.082031 952.113281 1286.742188 953.835938 C 1286.398438 955.554688 1286.140625 957.289062 1285.96875 959.035156 C 1285.796875 960.78125 1285.710938 962.53125 1285.710938 964.285156 L 1285.710938 1071.246094 C 1285.710938 1073.003906 1285.625 1074.753906 1285.453125 1076.503906 C 1285.28125 1078.253906 1285.023438 1079.988281 1284.679688 1081.710938 C 1284.335938 1083.433594 1283.910156 1085.136719 1283.398438 1086.816406 C 1282.886719 1088.496094 1282.296875 1090.148438 1281.625 1091.773438 C 1280.949219 1093.394531 1280.199219 1094.980469 1279.371094 1096.527344 C 1278.542969 1098.078125 1277.636719 1099.582031 1276.660156 1101.042969 C 1275.683594 1102.503906 1274.636719 1103.910156 1273.523438 1105.269531 C 1272.40625 1106.625 1271.226562 1107.925781 1269.984375 1109.164062 C 1268.738281 1110.40625 1267.4375 1111.582031 1266.078125 1112.695312 C 1264.71875 1113.808594 1263.308594 1114.851562 1261.847656 1115.828125 C 1260.386719 1116.800781 1258.878906 1117.699219 1257.328125 1118.527344 C 1255.777344 1119.351562 1254.191406 1120.101562 1252.566406 1120.769531 C 1250.941406 1121.441406 1249.289062 1122.027344 1247.609375 1122.535156 C 1245.925781 1123.042969 1244.222656 1123.46875 1242.5 1123.808594 C 1240.777344 1124.144531 1239.039062 1124.402344 1237.292969 1124.570312 C 1235.542969 1124.738281 1233.789062 1124.820312 1232.03125 1124.816406 L 160.605469 1123.039062 C 158.851562 1123.035156 157.105469 1122.941406 155.363281 1122.765625 C 153.617188 1122.589844 151.886719 1122.328125 150.171875 1121.980469 C 148.453125 1121.636719 146.757812 1121.207031 145.082031 1120.691406 C 143.40625 1120.179688 141.757812 1119.585938 140.140625 1118.914062 C 138.523438 1118.242188 136.945312 1117.488281 135.402344 1116.660156 C 133.855469 1115.832031 132.355469 1114.929688 130.902344 1113.957031 C 129.445312 1112.980469 128.042969 1111.9375 126.6875 1110.824219 C 125.335938 1109.710938 124.039062 1108.535156 122.800781 1107.292969 C 121.566406 1106.054688 120.390625 1104.757812 119.277344 1103.402344 C 118.167969 1102.046875 117.125 1100.640625 116.152344 1099.183594 C 115.179688 1097.726562 114.28125 1096.226562 113.453125 1094.679688 C 112.628906 1093.136719 111.878906 1091.554688 111.207031 1089.9375 C 110.535156 1088.316406 109.945312 1086.671875 109.4375 1084.996094 C 108.925781 1083.316406 108.5 1081.621094 108.15625 1079.902344 C 107.8125 1078.183594 107.554688 1076.453125 107.378906 1074.710938 C 107.203125 1072.96875 107.117188 1071.21875 107.113281 1069.46875 L 107.113281 428.570312 C 107.117188 426.816406 107.203125 425.066406 107.378906 423.324219 C 107.550781 421.578125 107.8125 419.84375 108.15625 418.125 C 108.5 416.40625 108.925781 414.707031 109.4375 413.027344 C 109.945312 411.351562 110.539062 409.703125 111.210938 408.082031 C 111.882812 406.460938 112.632812 404.878906 113.460938 403.332031 C 114.289062 401.785156 115.1875 400.28125 116.164062 398.824219 C 117.136719 397.367188 118.183594 395.960938 119.296875 394.605469 C 120.40625 393.25 121.585938 391.953125 122.824219 390.710938 C 124.066406 389.472656 125.363281 388.292969 126.71875 387.179688 C 128.074219 386.070312 129.480469 385.023438 130.9375 384.050781 C 132.398438 383.074219 133.898438 382.171875 135.445312 381.347656 C 136.992188 380.519531 138.574219 379.769531 140.195312 379.097656 C 141.816406 378.425781 143.464844 377.832031 145.140625 377.324219 C 146.820312 376.8125 148.519531 376.382812 150.238281 376.039062 C 151.957031 375.695312 153.691406 375.4375 155.4375 375.265625 C 157.179688 375.089844 158.929688 375.003906 160.683594 375 Z M 1232.140625 375 " fill-opacity="1" fill-rule="nonzero"/>
    </g>
    <path fill="#f5f5f7" d="M 214.28125 535.714844 L 214.28125 964.285156 C 214.28125 966.039062 214.367188 967.789062 214.542969 969.535156 C 214.714844 971.28125 214.96875 973.015625 215.3125 974.738281 C 215.65625 976.457031 216.082031 978.15625 216.589844 979.835938 C 217.097656 981.515625 217.691406 983.164062 218.359375 984.785156 C 219.03125 986.40625 219.78125 987.992188 220.609375 989.539062 C 221.4375 991.085938 222.335938 992.589844 223.3125 994.046875 C 224.285156 995.507812 225.332031 996.914062 226.445312 998.269531 C 227.554688 999.628906 228.734375 1000.925781 229.972656 1002.167969 C 231.214844 1003.40625 232.511719 1004.582031 233.871094 1005.695312 C 235.226562 1006.808594 236.632812 1007.855469 238.09375 1008.828125 C 239.550781 1009.804688 241.054688 1010.703125 242.601562 1011.53125 C 244.148438 1012.359375 245.734375 1013.109375 247.355469 1013.777344 C 248.976562 1014.449219 250.625 1015.039062 252.304688 1015.550781 C 253.984375 1016.058594 255.683594 1016.484375 257.402344 1016.828125 C 259.125 1017.167969 260.859375 1017.425781 262.605469 1017.597656 C 264.351562 1017.769531 266.101562 1017.855469 267.855469 1017.855469 C 269.609375 1017.855469 271.359375 1017.769531 273.105469 1017.597656 C 274.851562 1017.425781 276.585938 1017.167969 278.304688 1016.828125 C 280.027344 1016.484375 281.726562 1016.058594 283.40625 1015.550781 C 285.085938 1015.039062 286.734375 1014.449219 288.355469 1013.777344 C 289.976562 1013.109375 291.5625 1012.359375 293.109375 1011.53125 C 294.65625 1010.703125 296.160156 1009.804688 297.617188 1008.828125 C 299.074219 1007.855469 300.484375 1006.808594 301.839844 1005.695312 C 303.195312 1004.582031 304.496094 1003.40625 305.734375 1002.167969 C 306.976562 1000.925781 308.152344 999.628906 309.265625 998.269531 C 310.378906 996.914062 311.421875 995.507812 312.398438 994.046875 C 313.371094 992.589844 314.273438 991.085938 315.101562 989.539062 C 315.925781 987.992188 316.675781 986.40625 317.347656 984.785156 C 318.019531 983.164062 318.609375 981.515625 319.121094 979.835938 C 319.628906 978.15625 320.054688 976.457031 320.398438 974.738281 C 320.738281 973.015625 320.996094 971.28125 321.167969 969.535156 C 321.339844 967.789062 321.425781 966.039062 321.425781 964.285156 L 321.425781 535.714844 C 321.425781 533.960938 321.339844 532.210938 321.167969 530.464844 C 320.996094 528.71875 320.738281 526.984375 320.398438 525.261719 C 320.054688 523.542969 319.628906 521.84375 319.117188 520.164062 C 318.609375 518.484375 318.019531 516.835938 317.347656 515.214844 C 316.675781 513.59375 315.925781 512.007812 315.101562 510.460938 C 314.273438 508.914062 313.371094 507.410156 312.398438 505.953125 C 311.421875 504.492188 310.378906 503.085938 309.265625 501.730469 C 308.152344 500.371094 306.976562 499.074219 305.734375 497.832031 C 304.496094 496.59375 303.195312 495.417969 301.839844 494.304688 C 300.484375 493.191406 299.078125 492.144531 297.617188 491.171875 C 296.160156 490.195312 294.65625 489.296875 293.109375 488.46875 C 291.5625 487.640625 289.976562 486.890625 288.355469 486.21875 C 286.734375 485.550781 285.085938 484.957031 283.40625 484.449219 C 281.726562 483.941406 280.027344 483.515625 278.304688 483.171875 C 276.585938 482.828125 274.851562 482.574219 273.105469 482.402344 C 271.359375 482.230469 269.609375 482.144531 267.855469 482.144531 C 266.101562 482.144531 264.351562 482.230469 262.605469 482.402344 C 260.859375 482.574219 259.125 482.828125 257.402344 483.171875 C 255.683594 483.515625 253.984375 483.941406 252.304688 484.449219 C 250.625 484.957031 248.976562 485.550781 247.355469 486.21875 C 245.734375 486.890625 244.148438 487.640625 242.601562 488.46875 C 241.054688 489.296875 239.550781 490.195312 238.09375 491.171875 C 236.632812 492.144531 235.226562 493.191406 233.867188 494.304688 C 232.511719 495.417969 231.214844 496.59375 229.972656 497.832031 C 228.734375 499.074219 227.554688 500.371094 226.445312 501.730469 C 225.332031 503.085938 224.285156 504.492188 223.3125 505.953125 C 222.335938 507.410156 221.4375 508.914062 220.609375 510.460938 C 219.78125 512.007812 219.03125 513.59375 218.359375 515.214844 C 217.691406 516.835938 217.097656 518.484375 216.589844 520.164062 C 216.082031 521.84375 215.65625 523.542969 215.3125 525.261719 C 214.96875 526.984375 214.714844 528.71875 214.542969 530.464844 C 214.367188 532.210938 214.28125 533.960938 214.28125 535.714844 Z M 214.28125 535.714844 " fill-opacity="1" fill-rule="nonzero"/>
    <path fill="#f5f5f7" d="M 428.570312 535.714844 L 428.570312 964.285156 C 428.570312 966.039062 428.65625 967.789062 428.828125 969.535156 C 429 971.28125 429.253906 973.015625 429.597656 974.738281 C 429.941406 976.457031 430.367188 978.15625 430.875 979.835938 C 431.386719 981.515625 431.976562 983.164062 432.648438 984.785156 C 433.316406 986.40625 434.066406 987.992188 434.894531 989.539062 C 435.722656 991.085938 436.621094 992.589844 437.597656 994.046875 C 438.570312 995.507812 439.617188 996.914062 440.730469 998.269531 C 441.84375 999.628906 443.019531 1000.925781 444.257812 1002.167969 C 445.5 1003.40625 446.796875 1004.582031 448.15625 1005.695312 C 449.511719 1006.808594 450.917969 1007.855469 452.378906 1008.828125 C 453.835938 1009.804688 455.339844 1010.703125 456.886719 1011.53125 C 458.433594 1012.359375 460.019531 1013.109375 461.640625 1013.777344 C 463.261719 1014.449219 464.910156 1015.039062 466.589844 1015.550781 C 468.269531 1016.058594 469.96875 1016.484375 471.6875 1016.828125 C 473.410156 1017.167969 475.144531 1017.425781 476.890625 1017.597656 C 478.636719 1017.769531 480.386719 1017.855469 482.140625 1017.855469 C 483.894531 1017.855469 485.644531 1017.769531 487.390625 1017.597656 C 489.136719 1017.425781 490.871094 1017.167969 492.589844 1016.828125 C 494.3125 1016.484375 496.011719 1016.058594 497.691406 1015.550781 C 499.371094 1015.039062 501.019531 1014.449219 502.640625 1013.777344 C 504.261719 1013.109375 505.847656 1012.359375 507.394531 1011.53125 C 508.941406 1010.703125 510.445312 1009.804688 511.902344 1008.828125 C 513.363281 1007.855469 514.769531 1006.808594 516.125 1005.695312 C 517.480469 1004.582031 518.78125 1003.40625 520.019531 1002.167969 C 521.261719 1000.925781 522.4375 999.628906 523.550781 998.269531 C 524.664062 996.914062 525.707031 995.507812 526.683594 994.046875 C 527.65625 992.589844 528.558594 991.085938 529.386719 989.539062 C 530.214844 987.992188 530.960938 986.40625 531.632812 984.785156 C 532.304688 983.164062 532.894531 981.515625 533.40625 979.835938 C 533.914062 978.15625 534.339844 976.457031 534.683594 974.738281 C 535.023438 973.015625 535.28125 971.28125 535.453125 969.535156 C 535.625 967.789062 535.710938 966.039062 535.710938 964.285156 L 535.710938 535.714844 C 535.710938 533.960938 535.625 532.210938 535.453125 530.464844 C 535.28125 528.71875 535.023438 526.984375 534.683594 525.261719 C 534.339844 523.542969 533.914062 521.84375 533.40625 520.164062 C 532.894531 518.484375 532.304688 516.835938 531.632812 515.214844 C 530.960938 513.59375 530.214844 512.007812 529.386719 510.460938 C 528.558594 508.914062 527.65625 507.410156 526.683594 505.953125 C 525.707031 504.492188 524.664062 503.085938 523.550781 501.730469 C 522.4375 500.371094 521.261719 499.074219 520.019531 497.832031 C 518.78125 496.59375 517.480469 495.417969 516.125 494.304688 C 514.769531 493.191406 513.363281 492.144531 511.902344 491.171875 C 510.445312 490.195312 508.941406 489.296875 507.394531 488.46875 C 505.847656 487.640625 504.261719 486.890625 502.640625 486.21875 C 501.019531 485.550781 499.371094 484.957031 497.691406 484.449219 C 496.011719 483.941406 494.3125 483.515625 492.589844 483.171875 C 490.871094 482.828125 489.136719 482.574219 487.390625 482.402344 C 485.644531 482.230469 483.894531 482.144531 482.140625 482.144531 C 480.386719 482.144531 478.636719 482.230469 476.890625 482.402344 C 475.144531 482.574219 473.410156 482.828125 471.6875 483.171875 C 469.96875 483.515625 468.269531 483.941406 466.589844 484.449219 C 464.910156 484.957031 463.261719 485.550781 461.640625 486.21875 C 460.019531 486.890625 458.433594 487.640625 456.886719 488.46875 C 455.339844 489.296875 453.835938 490.195312 452.378906 491.171875 C 450.917969 492.144531 449.511719 493.191406 448.15625 494.304688 C 446.796875 495.417969 445.5 496.59375 444.257812 497.832031 C 443.019531 499.074219 441.84375 500.371094 440.730469 501.730469 C 439.617188 503.085938 438.570312 504.492188 437.597656 505.953125 C 436.621094 507.410156 435.722656 508.914062 434.894531 510.460938 C 434.066406 512.007812 433.316406 513.59375 432.648438 515.214844 C 431.976562 516.835938 431.386719 518.484375 430.875 520.164062 C 430.367188 521.84375 429.941406 523.542969 429.597656 525.261719 C 429.253906 526.984375 429 528.71875 428.828125 530.464844 C 428.65625 532.210938 428.570312 533.960938 428.570312 535.714844 Z M 428.570312 535.714844 " fill-opacity="1" fill-rule="nonzero"/>
    <path fill="#f5f5f7" d="M 642.855469 535.714844 L 642.855469 964.285156 C 642.855469 966.039062 642.941406 967.789062 643.113281 969.535156 C 643.285156 971.28125 643.542969 973.015625 643.882812 974.738281 C 644.226562 976.457031 644.652344 978.15625 645.160156 979.835938 C 645.671875 981.515625 646.261719 983.164062 646.933594 984.785156 C 647.605469 986.40625 648.351562 987.992188 649.179688 989.539062 C 650.007812 991.085938 650.90625 992.589844 651.882812 994.046875 C 652.859375 995.507812 653.902344 996.914062 655.015625 998.269531 C 656.128906 999.628906 657.304688 1000.925781 658.546875 1002.167969 C 659.785156 1003.40625 661.085938 1004.582031 662.441406 1005.695312 C 663.796875 1006.808594 665.203125 1007.855469 666.664062 1008.828125 C 668.121094 1009.804688 669.625 1010.703125 671.171875 1011.53125 C 672.71875 1012.359375 674.304688 1013.109375 675.925781 1013.777344 C 677.546875 1014.449219 679.195312 1015.039062 680.875 1015.550781 C 682.554688 1016.058594 684.253906 1016.484375 685.976562 1016.828125 C 687.695312 1017.167969 689.429688 1017.425781 691.175781 1017.597656 C 692.921875 1017.769531 694.671875 1017.855469 696.425781 1017.855469 C 698.179688 1017.855469 699.929688 1017.769531 701.675781 1017.597656 C 703.421875 1017.425781 705.15625 1017.167969 706.878906 1016.828125 C 708.597656 1016.484375 710.296875 1016.058594 711.976562 1015.550781 C 713.65625 1015.039062 715.304688 1014.449219 716.925781 1013.777344 C 718.546875 1013.109375 720.132812 1012.359375 721.679688 1011.53125 C 723.226562 1010.703125 724.730469 1009.804688 726.1875 1008.828125 C 727.648438 1007.855469 729.054688 1006.808594 730.410156 1005.695312 C 731.765625 1004.582031 733.066406 1003.40625 734.304688 1002.167969 C 735.546875 1000.925781 736.722656 999.628906 737.835938 998.269531 C 738.949219 996.914062 739.992188 995.507812 740.96875 994.046875 C 741.945312 992.589844 742.84375 991.085938 743.671875 989.539062 C 744.5 987.992188 745.246094 986.40625 745.917969 984.785156 C 746.589844 983.164062 747.179688 981.515625 747.691406 979.835938 C 748.199219 978.15625 748.625 976.457031 748.96875 974.738281 C 749.308594 973.015625 749.566406 971.28125 749.738281 969.535156 C 749.910156 967.789062 749.996094 966.039062 749.996094 964.285156 L 749.996094 535.714844 C 749.996094 533.960938 749.910156 532.210938 749.738281 530.464844 C 749.566406 528.71875 749.308594 526.984375 748.96875 525.261719 C 748.625 523.542969 748.199219 521.84375 747.691406 520.164062 C 747.179688 518.484375 746.589844 516.835938 745.917969 515.214844 C 745.246094 513.59375 744.5 512.007812 743.671875 510.460938 C 742.84375 508.914062 741.945312 507.410156 740.96875 505.953125 C 739.992188 504.492188 738.949219 503.085938 737.835938 501.730469 C 736.722656 500.371094 735.546875 499.074219 734.304688 497.832031 C 733.066406 496.59375 731.765625 495.417969 730.410156 494.304688 C 729.054688 493.191406 727.648438 492.144531 726.1875 491.171875 C 724.730469 490.195312 723.226562 489.296875 721.679688 488.46875 C 720.132812 487.640625 718.546875 486.890625 716.925781 486.21875 C 715.304688 485.550781 713.65625 484.957031 711.976562 484.449219 C 710.296875 483.941406 708.597656 483.515625 706.878906 483.171875 C 705.15625 482.828125 703.421875 482.574219 701.675781 482.402344 C 699.929688 482.230469 698.179688 482.144531 696.425781 482.144531 C 694.671875 482.144531 692.921875 482.230469 691.175781 482.402344 C 689.429688 482.574219 687.695312 482.828125 685.976562 483.171875 C 684.253906 483.515625 682.554688 483.941406 680.875 484.449219 C 679.195312 484.957031 677.546875 485.550781 675.925781 486.21875 C 674.304688 486.890625 672.71875 487.640625 671.171875 488.46875 C 669.625 489.296875 668.121094 490.195312 666.664062 491.171875 C 665.203125 492.144531 663.796875 493.191406 662.441406 494.304688 C 661.085938 495.417969 659.785156 496.59375 658.546875 497.832031 C 657.304688 499.074219 656.128906 500.371094 655.015625 501.730469 C 653.902344 503.085938 652.859375 504.492188 651.882812 505.953125 C 650.90625 507.410156 650.007812 508.914062 649.179688 510.460938 C 648.351562 512.007812 647.605469 513.59375 646.933594 515.214844 C 646.261719 516.835938 645.671875 518.484375 645.160156 520.164062 C 644.652344 521.84375 644.226562 523.542969 643.882812 525.261719 C 643.542969 526.984375 643.285156 528.71875 643.113281 530.464844 C 642.941406 532.210938 642.855469 533.960938 642.855469 535.714844 Z M 642.855469 535.714844 " fill-opacity="1" fill-rule="nonzero"/>
</svg>