<svg xmlns="http://www.w3.org/2000/svg" xmlns:xlink="http://www.w3.org/1999/xlink" width="2000" zoomAndPan="magnify" viewBox="0 0 1500 1499.999933" height="2000" preserveAspectRatio="xMidYMid meet" version="1.0"><defs><clipPath id="1fb532916e"><rect x="0" width="1443" y="0" height="1443"/></clipPath></defs><g transform="matrix(1, 0, 0, 1, 7, 50)"><g clip-path="url(#1fb532916e)"><path fill="#f5f5f7" d="M 418.917969 908.027344 C 254.03125 686.617188 271.382812 371.40625 472.25 170.542969 C 692.871094 -50.082031 1051.835938 -50.082031 1272.457031 170.542969 C 1493.082031 391.164062 1493.082031 750.128906 1272.457031 970.75 C 1071.59375 1171.617188 756.382812 1188.96875 534.972656 1024.082031 L 141.238281 1417.816406 C 109.183594 1449.871094 57.238281 1449.871094 25.183594 1417.816406 C -6.871094 1385.757812 -6.871094 1333.816406 25.183594 1301.761719 Z M 549.613281 893.386719 C 727.5625 1071.339844 1017.132812 1071.339844 1195.089844 893.386719 C 1373.042969 715.4375 1373.042969 425.867188 1195.089844 247.910156 C 1017.132812 69.957031 727.570312 69.957031 549.613281 247.910156 C 371.664062 425.867188 371.664062 715.429688 549.613281 893.386719 Z M 549.613281 893.386719 " fill-opacity="1" fill-rule="nonzero"/></g></g></svg>