<svg xmlns="http://www.w3.org/2000/svg" xmlns:xlink="http://www.w3.org/1999/xlink" width="2000" zoomAndPan="magnify" viewBox="0 0 1500 1499.999933" height="2000" preserveAspectRatio="xMidYMid meet" version="1.0"><defs><clipPath id="5d8d11b4c1"><path d="M 0 0 L 736.363281 0 L 736.363281 1499.996094 L 0 1499.996094 Z M 0 0 " clip-rule="nonzero"/></clipPath></defs><path fill="#f5f5f7" d="M 750 0 C 335.625 0 0 335.625 0 750 C 0 1164.375 335.625 1500 750 1500 C 1164.375 1500 1500 1164.375 1500 750 C 1500 335.625 1164.375 0 750 0 Z M 750 1350 C 419.25 1350 150 1080.75 150 750 C 150 419.25 419.25 150 750 150 C 1080.75 150 1350 419.25 1350 750 C 1350 1080.75 1080.75 1350 750 1350 Z M 750 1350 " fill-opacity="1" fill-rule="nonzero"/><g clip-path="url(#5d8d11b4c1)"><path fill="#f5f5f7" d="M 736.363281 1499.8125 C 328.542969 1492.722656 0.265625 1159.851562 0.265625 749.933594 C 0.265625 340.472656 328.542969 7.601562 736.363281 0.511719 Z M 736.363281 1499.8125 " fill-opacity="1" fill-rule="nonzero"/></g></svg>