<svg xmlns="http://www.w3.org/2000/svg" xmlns:xlink="http://www.w3.org/1999/xlink" width="2000" zoomAndPan="magnify" viewBox="0 0 1500 1499.999933" height="2000" preserveAspectRatio="xMidYMid meet" version="1.0">
    <defs>
        <clipPath id="97bcbc4b80">
            <path d="M 8 203.621094 L 1492 203.621094 L 1492 643 L 8 643 Z M 8 203.621094 " clip-rule="nonzero"/>
        </clipPath>
        <clipPath id="cc432a0d9d">
            <path d="M 652 1104 L 845 1104 L 845 1296.371094 L 652 1296.371094 Z M 652 1104 " clip-rule="nonzero"/>
        </clipPath>
    </defs>
    <path fill="#f5f5f7" d="M 749.863281 505.804688 C 557.695312 505.804688 376.941406 580.734375 240.871094 716.78125 C 210.226562 747.429688 210.226562 797.117188 240.871094 827.765625 C 271.519531 858.414062 321.207031 858.414062 351.851562 827.765625 C 571.3125 608.304688 928.394531 608.304688 1147.824219 827.765625 C 1163.148438 843.089844 1183.234375 850.75 1203.316406 850.75 C 1223.398438 850.75 1243.484375 843.089844 1258.804688 827.765625 C 1289.453125 797.117188 1289.453125 747.429688 1258.804688 716.78125 C 1122.753906 580.734375 941.980469 505.804688 749.8125 505.804688 Z M 749.863281 505.804688 " fill-opacity="1" fill-rule="nonzero"/>
    <path fill="#f5f5f7" d="M 749.863281 789.050781 C 633.027344 789.050781 523.121094 834.601562 440.414062 917.3125 C 409.925781 947.804688 409.925781 997.230469 440.414062 1027.722656 C 470.898438 1058.207031 520.328125 1058.207031 550.820312 1027.722656 C 660.570312 917.972656 839.15625 917.972656 948.90625 1027.722656 C 964.152344 1042.964844 984.128906 1050.585938 1004.109375 1050.585938 C 1024.089844 1050.585938 1044.070312 1042.964844 1059.316406 1027.722656 C 1089.800781 997.230469 1089.800781 947.804688 1059.316406 917.3125 C 976.601562 834.601562 866.707031 789.050781 749.863281 789.050781 Z M 749.863281 789.050781 " fill-opacity="1" fill-rule="nonzero"/>
    <g clip-path="url(#cc432a0d9d)">
        <path fill="#f5f5f7" d="M 844.863281 1200.21875 C 844.863281 1201.792969 844.824219 1203.363281 844.746094 1204.933594 C 844.667969 1206.503906 844.554688 1208.074219 844.398438 1209.636719 C 844.246094 1211.203125 844.054688 1212.761719 843.824219 1214.316406 C 843.589844 1215.875 843.324219 1217.421875 843.015625 1218.964844 C 842.710938 1220.507812 842.363281 1222.039062 841.984375 1223.566406 C 841.601562 1225.089844 841.179688 1226.605469 840.726562 1228.113281 C 840.269531 1229.617188 839.777344 1231.109375 839.246094 1232.589844 C 838.714844 1234.070312 838.148438 1235.535156 837.546875 1236.988281 C 836.945312 1238.441406 836.308594 1239.878906 835.636719 1241.300781 C 834.964844 1242.722656 834.257812 1244.125 833.515625 1245.511719 C 832.777344 1246.898438 832 1248.269531 831.191406 1249.617188 C 830.382812 1250.964844 829.542969 1252.292969 828.667969 1253.601562 C 827.796875 1254.910156 826.890625 1256.195312 825.953125 1257.457031 C 825.015625 1258.71875 824.050781 1259.960938 823.050781 1261.175781 C 822.054688 1262.390625 821.027344 1263.582031 819.972656 1264.746094 C 818.914062 1265.910156 817.832031 1267.050781 816.71875 1268.160156 C 815.609375 1269.273438 814.46875 1270.355469 813.304688 1271.414062 C 812.140625 1272.46875 810.949219 1273.496094 809.734375 1274.492188 C 808.519531 1275.492188 807.277344 1276.457031 806.015625 1277.394531 C 804.753906 1278.332031 803.46875 1279.238281 802.160156 1280.109375 C 800.851562 1280.984375 799.523438 1281.824219 798.175781 1282.632812 C 796.828125 1283.441406 795.457031 1284.21875 794.070312 1284.957031 C 792.683594 1285.699219 791.28125 1286.40625 789.859375 1287.078125 C 788.4375 1287.75 787 1288.386719 785.546875 1288.988281 C 784.09375 1289.589844 782.628906 1290.15625 781.148438 1290.6875 C 779.667969 1291.21875 778.175781 1291.710938 776.667969 1292.167969 C 775.164062 1292.625 773.648438 1293.042969 772.125 1293.425781 C 770.597656 1293.804688 769.066406 1294.152344 767.523438 1294.457031 C 765.980469 1294.765625 764.433594 1295.035156 762.875 1295.265625 C 761.320312 1295.496094 759.761719 1295.6875 758.195312 1295.839844 C 756.632812 1295.996094 755.0625 1296.109375 753.492188 1296.1875 C 751.921875 1296.265625 750.351562 1296.304688 748.777344 1296.304688 C 747.207031 1296.304688 745.632812 1296.265625 744.0625 1296.1875 C 742.492188 1296.109375 740.925781 1295.996094 739.359375 1295.839844 C 737.796875 1295.6875 736.234375 1295.496094 734.679688 1295.265625 C 733.125 1295.035156 731.574219 1294.765625 730.03125 1294.457031 C 728.492188 1294.152344 726.957031 1293.804688 725.429688 1293.425781 C 723.90625 1293.042969 722.390625 1292.625 720.886719 1292.167969 C 719.382812 1291.710938 717.886719 1291.21875 716.40625 1290.6875 C 714.925781 1290.15625 713.460938 1289.589844 712.007812 1288.988281 C 710.554688 1288.386719 709.117188 1287.75 707.695312 1287.078125 C 706.273438 1286.40625 704.871094 1285.699219 703.484375 1284.957031 C 702.097656 1284.21875 700.730469 1283.441406 699.378906 1282.632812 C 698.03125 1281.824219 696.703125 1280.984375 695.394531 1280.109375 C 694.089844 1279.238281 692.804688 1278.332031 691.539062 1277.394531 C 690.277344 1276.457031 689.039062 1275.492188 687.824219 1274.492188 C 686.605469 1273.496094 685.417969 1272.46875 684.25 1271.414062 C 683.085938 1270.355469 681.949219 1269.273438 680.835938 1268.160156 C 679.722656 1267.050781 678.640625 1265.910156 677.582031 1264.746094 C 676.527344 1263.582031 675.5 1262.390625 674.503906 1261.175781 C 673.507812 1259.960938 672.539062 1258.71875 671.601562 1257.457031 C 670.664062 1256.195312 669.761719 1254.910156 668.886719 1253.601562 C 668.011719 1252.292969 667.171875 1250.964844 666.363281 1249.617188 C 665.554688 1248.269531 664.78125 1246.898438 664.039062 1245.511719 C 663.296875 1244.125 662.589844 1242.722656 661.917969 1241.300781 C 661.246094 1239.878906 660.609375 1238.441406 660.007812 1236.988281 C 659.40625 1235.535156 658.839844 1234.070312 658.308594 1232.589844 C 657.78125 1231.109375 657.285156 1229.617188 656.832031 1228.113281 C 656.375 1226.605469 655.953125 1225.089844 655.574219 1223.566406 C 655.191406 1222.039062 654.847656 1220.507812 654.539062 1218.964844 C 654.234375 1217.421875 653.964844 1215.875 653.734375 1214.316406 C 653.503906 1212.761719 653.308594 1211.203125 653.15625 1209.636719 C 653.003906 1208.074219 652.886719 1206.503906 652.808594 1204.933594 C 652.730469 1203.363281 652.695312 1201.792969 652.695312 1200.21875 C 652.695312 1198.648438 652.730469 1197.074219 652.808594 1195.503906 C 652.886719 1193.933594 653.003906 1192.367188 653.15625 1190.800781 C 653.308594 1189.238281 653.503906 1187.675781 653.734375 1186.121094 C 653.964844 1184.566406 654.234375 1183.015625 654.539062 1181.472656 C 654.847656 1179.933594 655.191406 1178.398438 655.574219 1176.871094 C 655.953125 1175.347656 656.375 1173.832031 656.832031 1172.328125 C 657.285156 1170.824219 657.78125 1169.328125 658.308594 1167.847656 C 658.839844 1166.367188 659.40625 1164.902344 660.007812 1163.449219 C 660.609375 1161.996094 661.246094 1160.558594 661.917969 1159.136719 C 662.589844 1157.714844 663.296875 1156.3125 664.039062 1154.925781 C 664.78125 1153.539062 665.554688 1152.171875 666.363281 1150.820312 C 667.171875 1149.472656 668.011719 1148.144531 668.886719 1146.835938 C 669.761719 1145.53125 670.664062 1144.246094 671.601562 1142.980469 C 672.539062 1141.71875 673.507812 1140.480469 674.503906 1139.265625 C 675.5 1138.046875 676.527344 1136.859375 677.585938 1135.691406 C 678.640625 1134.527344 679.722656 1133.390625 680.835938 1132.277344 C 681.949219 1131.164062 683.085938 1130.082031 684.25 1129.023438 C 685.417969 1127.96875 686.605469 1126.941406 687.824219 1125.945312 C 689.039062 1124.949219 690.277344 1123.980469 691.539062 1123.042969 C 692.804688 1122.105469 694.089844 1121.203125 695.394531 1120.328125 C 696.703125 1119.453125 698.03125 1118.613281 699.378906 1117.804688 C 700.730469 1116.996094 702.097656 1116.222656 703.484375 1115.480469 C 704.871094 1114.738281 706.273438 1114.03125 707.695312 1113.359375 C 709.117188 1112.6875 710.554688 1112.050781 712.007812 1111.449219 C 713.460938 1110.847656 714.925781 1110.28125 716.40625 1109.75 C 717.886719 1109.222656 719.382812 1108.730469 720.886719 1108.273438 C 722.390625 1107.816406 723.90625 1107.398438 725.429688 1107.015625 C 726.957031 1106.632812 728.492188 1106.289062 730.03125 1105.980469 C 731.574219 1105.675781 733.125 1105.40625 734.679688 1105.175781 C 736.234375 1104.945312 737.796875 1104.75 739.359375 1104.597656 C 740.925781 1104.445312 742.492188 1104.328125 744.0625 1104.25 C 745.632812 1104.171875 747.207031 1104.136719 748.777344 1104.136719 C 750.351562 1104.136719 751.921875 1104.171875 753.492188 1104.25 C 755.0625 1104.328125 756.632812 1104.445312 758.195312 1104.597656 C 759.761719 1104.75 761.320312 1104.945312 762.875 1105.175781 C 764.433594 1105.40625 765.980469 1105.675781 767.523438 1105.980469 C 769.066406 1106.289062 770.597656 1106.632812 772.125 1107.015625 C 773.648438 1107.398438 775.164062 1107.816406 776.667969 1108.273438 C 778.175781 1108.730469 779.667969 1109.222656 781.148438 1109.75 C 782.628906 1110.28125 784.09375 1110.847656 785.546875 1111.449219 C 787 1112.050781 788.4375 1112.6875 789.859375 1113.359375 C 791.28125 1114.03125 792.683594 1114.738281 794.070312 1115.480469 C 795.457031 1116.222656 796.828125 1116.996094 798.175781 1117.804688 C 799.523438 1118.613281 800.851562 1119.453125 802.160156 1120.328125 C 803.46875 1121.203125 804.753906 1122.105469 806.015625 1123.042969 C 807.277344 1123.980469 808.519531 1124.949219 809.734375 1125.945312 C 810.949219 1126.941406 812.140625 1127.96875 813.304688 1129.027344 C 814.46875 1130.082031 815.609375 1131.164062 816.71875 1132.277344 C 817.832031 1133.390625 818.914062 1134.527344 819.972656 1135.691406 C 821.027344 1136.859375 822.054688 1138.046875 823.050781 1139.265625 C 824.050781 1140.480469 825.015625 1141.71875 825.953125 1142.980469 C 826.890625 1144.246094 827.796875 1145.53125 828.667969 1146.835938 C 829.542969 1148.144531 830.382812 1149.472656 831.191406 1150.820312 C 832 1152.171875 832.777344 1153.539062 833.515625 1154.925781 C 834.257812 1156.3125 834.964844 1157.714844 835.636719 1159.136719 C 836.308594 1160.558594 836.945312 1161.996094 837.546875 1163.449219 C 838.148438 1164.902344 838.714844 1166.367188 839.246094 1167.847656 C 839.777344 1169.328125 840.269531 1170.824219 840.726562 1172.328125 C 841.179688 1173.832031 841.601562 1175.347656 841.984375 1176.871094 C 842.363281 1178.398438 842.710938 1179.933594 843.015625 1181.472656 C 843.324219 1183.015625 843.589844 1184.566406 843.824219 1186.121094 C 844.054688 1187.675781 844.246094 1189.238281 844.398438 1190.800781 C 844.554688 1192.367188 844.667969 1193.933594 844.746094 1195.503906 C 844.824219 1197.074219 844.863281 1198.648438 844.863281 1200.21875 Z M 844.863281 1200.21875 " fill-opacity="1" fill-rule="nonzero"/>
    </g>
</svg>
